<svg xmlns="http://www.w3.org/2000/svg" xmlns:xlink="http://www.w3.org/1999/xlink" width="500" zoomAndPan="magnify" viewBox="0 0 375 374.999991" height="500" preserveAspectRatio="xMidYMid meet" version="1.0"><defs><g/></defs><rect x="-37.5" width="450" fill="#ffffff" y="-37.499999" height="449.999989" fill-opacity="1"/><rect x="-37.5" width="450" fill="#ffffff" y="-37.499999" height="449.999989" fill-opacity="1"/><rect x="-37.5" width="450" fill="#2b2b2b" y="-37.499999" height="449.999989" fill-opacity="1"/><path stroke-linecap="butt" transform="matrix(-2.099085, -0.000000000000000257, 0.000000000000000258, -2.109627, 359.5467, 38.584817)" fill="none" stroke-linejoin="miter" d="M -0.0000833269 5.000723 L 84.434036 5.000723 " stroke="#ffffff" stroke-width="10" stroke-opacity="1" stroke-miterlimit="4"/><path stroke-linecap="butt" transform="matrix(0.000000000000000128, -2.098034, 2.109627, 0.000000000000000129, 338.461242, 197.773595)" fill="none" stroke-linejoin="miter" d="M 0.0000750764 4.999258 L 82.463828 4.999258 " stroke="#ffffff" stroke-width="10" stroke-opacity="1" stroke-miterlimit="4"/><path stroke-linecap="butt" transform="matrix(2.051079, 0, 0, 2.06138, 13.451224, 334.422136)" fill="none" stroke-linejoin="miter" d="M 0.000926665 5.000694 L 84.432472 5.000694 " stroke="#ffffff" stroke-width="10" stroke-opacity="1" stroke-miterlimit="4"/><path stroke-linecap="butt" transform="matrix(0.000000000000000126, 2.050052, -2.06138, 0.000000000000000126, 34.054463, 178.873963)" fill="none" stroke-linejoin="miter" d="M 0.000505619 5.000712 L 82.46411 5.000712 " stroke="#ffffff" stroke-width="10" stroke-opacity="1" stroke-miterlimit="4"/><g fill="#ffffff" fill-opacity="1"><g transform="translate(120.582015, 293.491435)"><g><path d="M 137.421875 -3.273438 C 124.835938 -31.207031 111.246094 -58.894531 98.660156 -87.335938 C 118.796875 -94.632812 135.660156 -110.742188 135.660156 -141.445312 C 135.660156 -200.84375 79.027344 -201.347656 67.703125 -201.347656 L 2.515625 -201.347656 C 1.257812 -201.347656 0 -200.089844 0 -199.082031 L 0 -164.855469 L 67.703125 -164.855469 C 73.742188 -164.855469 97.402344 -163.59375 97.402344 -141.445312 C 97.402344 -119.296875 76.007812 -118.292969 67.703125 -118.292969 L 0 -118.292969 L 0 -2.265625 C 0 -1.257812 1.257812 0 2.515625 0 L 35.488281 0 C 36.996094 0 38.257812 -1.257812 38.257812 -2.265625 L 38.257812 -81.292969 L 59.902344 -81.292969 L 96.648438 -1.511719 C 96.898438 -0.753906 98.410156 0 99.164062 0 L 135.15625 0 C 137.167969 0 138.175781 -1.511719 137.421875 -3.273438 Z M 137.421875 -3.273438 "/></g></g></g></svg>