<svg version="1.1" id="Layer_1" xmlns="http://www.w3.org/2000/svg" xmlns:xlink="http://www.w3.org/1999/xlink" x="0px" y="0px"
	 width="100%" viewBox="0 0 928 928" enable-background="new 0 0 928 928" xml:space="preserve">
<path fill="#000000" opacity="1.000000" stroke="none" 
	d="
M364.000000,574.223267 
	C355.002289,574.221924 346.502441,574.107849 338.007843,574.269348 
	C334.197540,574.341797 332.668884,573.010254 332.675415,569.060730 
	C332.759430,518.408142 332.748383,467.755310 332.697357,417.102661 
	C332.694183,413.952545 333.762848,412.504333 337.038208,412.640656 
	C340.697327,412.792969 344.377655,412.830688 348.030884,412.615021 
	C351.505676,412.409912 352.530975,413.637421 352.518738,417.197540 
	C352.373413,459.518890 352.379303,501.840820 352.403107,544.162598 
	C352.409210,555.005981 351.023315,554.035950 362.305176,554.041748 
	C402.960907,554.062805 443.616608,554.037659 484.272339,554.021667 
	C491.323425,554.018921 491.323395,554.000122 491.347290,560.784912 
	C491.394653,574.232605 491.394684,574.233276 477.969452,574.232239 
	C440.146301,574.229431 402.323151,574.226013 364.000000,574.223267 
z"/>
<path fill="#000000" opacity="1.000000" stroke="none" 
	d="
M602.369507,406.000122 
	C602.370361,443.642395 602.283752,480.785126 602.475098,517.926392 
	C602.500854,522.927307 601.148987,524.545959 596.030273,524.436218 
	C582.723755,524.150635 582.721985,524.384277 582.721130,510.856873 
	C582.718689,470.550018 582.716370,430.243195 582.706665,389.936340 
	C582.704956,383.015808 582.688416,382.985901 575.850464,382.984375 
	C534.710815,382.975128 493.571198,382.984375 452.431580,382.978455 
	C443.778351,382.977203 443.720581,382.959564 443.778503,374.559875 
	C443.871460,361.079895 442.104950,362.828308 455.356934,362.811615 
	C501.826324,362.753082 548.295837,362.789062 594.765320,362.794678 
	C602.309631,362.795593 602.350464,362.808563 602.371948,370.523315 
	C602.404419,382.182159 602.373352,393.841156 602.369507,406.000122 
z"/>
<path fill="#000000" opacity="1.000000" stroke="none" 
	d="
M450.570801,522.248108 
	C447.830872,521.589844 447.383636,519.470581 446.559906,517.706238 
	C441.417145,506.691254 436.204620,495.706604 431.255341,484.604858 
	C429.722992,481.167633 427.543427,480.077911 423.911163,480.137604 
	C420.289917,480.197083 418.825806,481.396820 418.875641,485.093811 
	C419.012604,495.255127 418.951630,505.419861 418.893036,515.582825 
	C418.854797,522.219421 418.700348,522.314758 412.185760,522.344910 
	C397.692657,522.411987 397.692688,522.411987 397.691040,507.913239 
	C397.689453,493.917847 397.853699,479.919373 397.593384,465.928802 
	C397.505981,461.232666 398.800781,459.437042 403.733185,459.596191 
	C413.885834,459.923706 424.056854,459.649078 434.219788,459.711060 
	C437.112091,459.728668 439.848022,459.273193 442.448059,458.025879 
	C446.695740,455.988159 448.536987,452.278625 448.517426,447.896759 
	C448.498444,443.633667 446.375153,440.207825 442.303589,438.423920 
	C438.919373,436.941193 435.328979,436.316101 431.613464,436.326965 
	C421.783478,436.355774 411.952545,436.254669 402.123718,436.362091 
	C398.938965,436.396851 397.608429,435.215668 397.670380,431.986938 
	C398.030121,413.241699 394.928406,416.850525 412.197296,416.759216 
	C422.985352,416.702148 433.851959,415.523407 444.582214,417.629242 
	C458.710968,420.402039 466.779755,428.399323 469.103363,441.740936 
	C471.570862,455.908752 466.581909,467.719269 454.688538,474.643646 
	C451.432434,476.539337 451.058319,478.252197 452.539642,481.386780 
	C457.946991,492.829102 463.206055,504.341675 468.494385,515.839966 
	C469.305084,517.602661 470.646881,519.280151 469.513031,522.296570 
	C463.522919,522.296570 457.264679,522.296570 450.570801,522.248108 
z"/>
<path fill="#000000" opacity="1.000000" stroke="none" 
	d="
M530.330566,489.000061 
	C530.329773,498.817474 530.221924,508.136719 530.380615,517.451355 
	C530.442810,521.104248 529.115784,522.593445 525.434265,522.395386 
	C521.618225,522.190125 517.781860,522.278259 513.956787,522.356873 
	C511.130676,522.414917 509.632812,521.426575 509.640503,518.339050 
	C509.690369,498.373474 509.683960,478.407684 509.627686,458.442139 
	C509.619751,455.624512 510.902008,454.819244 513.551086,454.634552 
	C530.333740,453.464417 530.330566,453.415771 530.331482,470.031616 
	C530.331787,476.187775 530.330627,482.343903 530.330566,489.000061 
z"/>
<path fill="#000000" opacity="1.000000" stroke="none" 
	d="
M531.999268,435.352966 
	C518.704468,435.347504 505.907715,435.219055 493.115631,435.406708 
	C488.982239,435.467316 487.545135,434.003418 487.634186,429.911163 
	C487.977722,414.122192 485.623810,416.857330 500.716919,416.693268 
	C515.836487,416.528931 530.961182,416.789124 546.079102,416.561340 
	C550.598511,416.493256 552.302612,417.915039 552.231567,422.516174 
	C551.995117,437.824097 553.167175,435.090607 539.478088,435.346222 
	C537.152527,435.389648 534.825500,435.352570 531.999268,435.352966 
z"/>
</svg>