<svg xmlns="http://www.w3.org/2000/svg" xmlns:xlink="http://www.w3.org/1999/xlink" width="500" zoomAndPan="magnify" viewBox="0 0 375 374.999991" height="500" preserveAspectRatio="xMidYMid meet" version="1.0"><defs><g/></defs><g fill="#231f20" fill-opacity="1"><g transform="translate(99.318617, 207.303502)"><g><path d="M 28.667969 -0.683594 C 26.042969 -6.511719 23.207031 -12.285156 20.582031 -18.21875 C 24.785156 -19.742188 28.300781 -23.101562 28.300781 -29.507812 C 28.300781 -41.902344 16.488281 -42.007812 14.125 -42.007812 L 0.523438 -42.007812 C 0.261719 -42.007812 0 -41.742188 0 -41.535156 L 0 -34.390625 L 14.125 -34.390625 C 15.382812 -34.390625 20.320312 -34.128906 20.320312 -29.507812 C 20.320312 -24.886719 15.855469 -24.679688 14.125 -24.679688 L 0 -24.679688 L 0 -0.472656 C 0 -0.261719 0.261719 0 0.523438 0 L 7.402344 0 C 7.71875 0 7.980469 -0.261719 7.980469 -0.472656 L 7.980469 -16.960938 L 12.496094 -16.960938 L 20.164062 -0.316406 C 20.214844 -0.15625 20.53125 0 20.6875 0 L 28.195312 0 C 28.617188 0 28.828125 -0.316406 28.667969 -0.683594 Z M 28.667969 -0.683594 "/></g></g></g><g fill="#231f20" fill-opacity="1"><g transform="translate(135.282079, 207.303502)"><g><path d="M 19.953125 -7.824219 L 8.035156 -7.824219 L 8.035156 -17.273438 L 24.519531 -17.273438 C 24.835938 -17.273438 25.097656 -17.539062 25.097656 -17.746094 L 25.097656 -24.414062 C 25.097656 -24.679688 24.835938 -24.886719 24.519531 -24.886719 L 8.035156 -24.886719 L 8.035156 -34.390625 L 19.953125 -34.390625 L 19.953125 -42.007812 L 0.578125 -42.007812 C 0.261719 -42.007812 0 -41.742188 0 -41.535156 L 0 -0.472656 C 0 -0.261719 0.261719 0 0.578125 0 L 19.953125 0 Z M 19.953125 -7.824219 "/></g></g></g><g fill="#231f20" fill-opacity="1"><g transform="translate(167.413053, 207.303502)"><g><path d="M 8.664062 -26.777344 L 8.664062 -0.472656 C 8.664062 -0.261719 8.875 0 9.242188 0 L 16.015625 0 C 16.382812 0 16.644531 -0.261719 16.644531 -0.472656 L 16.644531 -26.777344 Z M 0.578125 -34.8125 L 24.679688 -34.8125 C 25.046875 -34.8125 25.257812 -35.023438 25.257812 -35.285156 L 25.257812 -41.535156 C 25.257812 -41.742188 25.046875 -42.007812 24.679688 -42.007812 L 0.578125 -42.007812 C 0.261719 -42.007812 0 -41.742188 0 -41.535156 L 0 -35.285156 C 0 -35.023438 0.261719 -34.8125 0.578125 -34.8125 Z M 0.578125 -34.8125 "/></g></g></g><g fill="#231f20" fill-opacity="1"><g transform="translate(199.701514, 207.303502)"><g><path d="M 28.667969 -0.683594 C 26.042969 -6.511719 23.207031 -12.285156 20.582031 -18.21875 C 24.785156 -19.742188 28.300781 -23.101562 28.300781 -29.507812 C 28.300781 -41.902344 16.488281 -42.007812 14.125 -42.007812 L 0.523438 -42.007812 C 0.261719 -42.007812 0 -41.742188 0 -41.535156 L 0 -34.390625 L 14.125 -34.390625 C 15.382812 -34.390625 20.320312 -34.128906 20.320312 -29.507812 C 20.320312 -24.886719 15.855469 -24.679688 14.125 -24.679688 L 0 -24.679688 L 0 -0.472656 C 0 -0.261719 0.261719 0 0.523438 0 L 7.402344 0 C 7.71875 0 7.980469 -0.261719 7.980469 -0.472656 L 7.980469 -16.960938 L 12.496094 -16.960938 L 20.164062 -0.316406 C 20.214844 -0.15625 20.53125 0 20.6875 0 L 28.195312 0 C 28.617188 0 28.828125 -0.316406 28.667969 -0.683594 Z M 28.667969 -0.683594 "/></g></g></g><g fill="#231f20" fill-opacity="1"><g transform="translate(235.664982, 207.303502)"><g><path d="M 24.152344 -20.898438 C 24.152344 -23.101562 22.421875 -24.886719 20.214844 -24.886719 C 18.011719 -24.886719 16.277344 -23.101562 16.277344 -20.898438 C 16.277344 -18.746094 18.011719 -16.960938 20.214844 -16.960938 C 22.421875 -16.960938 24.152344 -18.746094 24.152344 -20.898438 Z M 40.429688 -21.054688 C 40.429688 -31.503906 33.65625 -42.007812 20.269531 -42.007812 C 6.667969 -42.007812 0 -31.503906 0 -21.054688 C 0 -10.554688 6.667969 0 20.269531 0 C 33.65625 0 40.429688 -10.554688 40.429688 -21.054688 Z M 32.554688 -20.898438 C 32.554688 -14.125 28.40625 -7.351562 20.269531 -7.351562 C 12.023438 -7.351562 7.929688 -14.125 7.929688 -20.898438 C 7.929688 -27.777344 12.023438 -34.601562 20.269531 -34.601562 C 28.40625 -34.601562 32.554688 -27.777344 32.554688 -20.898438 Z M 32.554688 -20.898438 "/></g></g></g><path stroke-linecap="butt" transform="matrix(-0.746252, -0.000000000000000091, 0.000000000000000092, -0.75, 312.485082, 142.033995)" fill="none" stroke-linejoin="miter" d="M 0.000946839 4.998452 L 84.433298 4.998452 " stroke="#404040" stroke-width="10" stroke-opacity="1" stroke-miterlimit="4"/><path stroke-linecap="butt" transform="matrix(0.000000000000000046, -0.745878, 0.75, 0.000000000000000046, 304.98892, 198.627673)" fill="none" stroke-linejoin="miter" d="M -0.00165294 4.999149 L 82.461949 4.999149 " stroke="#404040" stroke-width="10" stroke-opacity="1" stroke-miterlimit="4"/><path stroke-linecap="butt" transform="matrix(0.746252, 0, 0, 0.75, 62.506479, 232.958306)" fill="none" stroke-linejoin="miter" d="M 0.0017872 4.998301 L 84.434139 4.998301 " stroke="#404040" stroke-width="10" stroke-opacity="1" stroke-miterlimit="4"/><path stroke-linecap="butt" transform="matrix(0.000000000000000046, 0.745878, -0.75, 0.000000000000000046, 70.002634, 176.364612)" fill="none" stroke-linejoin="miter" d="M -0.0017847 4.998303 L 82.461818 4.998303 " stroke="#404040" stroke-width="10" stroke-opacity="1" stroke-miterlimit="4"/><g fill="#2b2b2b" fill-opacity="1"><g transform="translate(200.854607, 230.746727)"><g><path d="M 0.210938 -14.957031 L 0.210938 -12.996094 L 5.230469 -12.996094 L 5.230469 0 L 7.265625 0 L 7.265625 -12.996094 L 12.28125 -12.996094 L 12.28125 -14.957031 Z M 0.210938 -14.957031 "/></g></g></g><g fill="#2b2b2b" fill-opacity="1"><g transform="translate(218.923008, 230.746727)"><g><path d="M 1.382812 -14.957031 L 1.382812 0 L 12.496094 0 L 12.496094 -1.960938 L 3.421875 -1.960938 L 3.421875 -6.496094 L 10.359375 -6.496094 L 10.359375 -8.457031 L 3.421875 -8.457031 L 3.421875 -12.996094 L 12.496094 -12.996094 L 12.496094 -14.957031 Z M 1.382812 -14.957031 "/></g></g></g><g fill="#2b2b2b" fill-opacity="1"><g transform="translate(237.298913, 230.746727)"><g><path d="M 3.519531 -14.957031 C 2.324219 -14.957031 1.382812 -14.011719 1.382812 -12.820312 L 1.382812 -2.132812 C 1.382812 -0.941406 2.324219 0 3.519531 0 L 11.320312 0 C 12.515625 0 13.457031 -0.941406 13.457031 -2.132812 L 13.457031 -3.519531 L 11.417969 -3.519531 L 11.417969 -2.84375 C 11.417969 -2.34375 11.015625 -1.960938 10.515625 -1.960938 L 4.324219 -1.960938 C 3.824219 -1.960938 3.421875 -2.34375 3.421875 -2.84375 L 3.421875 -12.109375 C 3.421875 -12.609375 3.824219 -12.996094 4.324219 -12.996094 L 10.515625 -12.996094 C 11.015625 -12.996094 11.417969 -12.609375 11.417969 -12.109375 L 11.417969 -11.4375 L 13.457031 -11.4375 L 13.457031 -12.820312 C 13.457031 -14.011719 12.515625 -14.957031 11.320312 -14.957031 Z M 3.519531 -14.957031 "/></g></g></g><g fill="#2b2b2b" fill-opacity="1"><g transform="translate(257.423716, 230.746727)"><g><path d="M 1.382812 -14.957031 L 1.382812 0 L 3.421875 0 L 3.421875 -6.421875 L 11.417969 -6.421875 L 11.417969 0 L 13.457031 0 L 13.457031 -14.957031 L 11.417969 -14.957031 L 11.417969 -8.535156 L 3.421875 -8.535156 L 3.421875 -14.957031 Z M 1.382812 -14.957031 "/></g></g></g></svg>